<?xml version="1.0" standalone="no"?>
<!DOCTYPE svg PUBLIC "-//W3C//DTD SVG 20010904//EN"
 "http://www.w3.org/TR/2001/REC-SVG-20010904/DTD/svg10.dtd">
<svg version="1.0" xmlns="http://www.w3.org/2000/svg"
 width="630.000000pt" height="630.000000pt" viewBox="0 0 630.000000 630.000000"
 preserveAspectRatio="xMidYMid meet">
<metadata>
Created by potrace 1.11, written by Peter Selinger 2001-2013
</metadata>
<g transform="translate(0.000000,630.000000) scale(0.100000,-0.100000)"
fill="#000000" stroke="none">
<path d="M0 3145 l0 -3135 3150 0 3150 0 0 681 c0 569 -2 680 -13 670 -8 -6
-18 -7 -23 -3 -4 4 -2 -1 6 -11 20 -27 1 -72 -83 -197 -76 -114 -91 -132 -101
-123 -3 4 -6 -3 -6 -14 0 -23 -24 -48 -38 -39 -6 3 -13 -6 -17 -22 -9 -37 -23
-52 -42 -45 -11 4 -14 3 -9 -6 10 -15 -11 -41 -28 -35 -8 3 -16 -2 -20 -11 -4
-11 -2 -14 7 -9 6 3 -8 -14 -33 -39 -25 -26 -49 -46 -55 -47 -5 0 -28 -18 -50
-39 -51 -48 -102 -76 -108 -58 -2 6 -3 4 -2 -5 4 -23 -108 -98 -145 -98 -11 0
-19 -5 -18 -12 2 -7 -12 -20 -29 -29 -18 -9 -40 -22 -48 -29 -8 -7 -26 -13
-40 -13 -13 0 -23 -5 -22 -11 1 -6 -7 -9 -18 -8 -11 2 -17 0 -12 -4 4 -4 -10
-15 -30 -25 -56 -25 -143 -49 -143 -39 0 5 -8 10 -17 12 -13 2 -4 11 29 31 27
16 54 25 65 21 13 -4 14 -3 5 4 -10 7 -4 14 25 27 21 10 55 29 76 42 21 13 43
21 49 17 6 -4 8 -3 5 3 -4 6 21 30 56 54 34 24 64 47 65 51 2 4 10 8 17 8 7 0
15 4 17 8 2 5 48 44 103 87 161 126 364 340 459 484 17 24 60 77 98 117 l68
74 0 300 c0 165 -3 300 -7 300 -5 0 -18 -18 -31 -40 -16 -29 -27 -38 -40 -34
-11 4 -13 3 -5 -3 16 -11 -32 -87 -49 -77 -7 5 -8 2 -3 -5 8 -13 -60 -121 -76
-121 -5 0 -9 -4 -9 -9 0 -22 -56 -100 -68 -96 -7 3 -10 0 -7 -5 9 -14 -48 -77
-63 -72 -7 2 -11 -1 -10 -7 5 -21 -156 -148 -342 -271 -63 -42 -76 -47 -83
-34 -11 19 47 83 76 84 9 0 16 3 15 7 -1 5 55 64 123 134 129 130 189 197 189
210 0 4 6 14 13 21 7 7 27 32 44 55 17 23 33 39 37 35 4 -3 4 1 0 11 -3 10 -1
17 5 17 6 0 11 6 11 14 0 8 3 16 8 18 4 1 34 44 67 94 33 50 65 89 70 87 6 -2
11 6 12 18 1 12 8 29 16 38 8 9 35 51 61 93 l46 78 -1 467 0 468 -95 -190
c-104 -206 -126 -245 -248 -435 -174 -271 -312 -430 -561 -645 -233 -201 -438
-341 -695 -472 -225 -115 -367 -149 -715 -169 -177 -11 -437 47 -701 157 -124
51 -209 98 -299 164 -348 256 -410 310 -538 470 -190 238 -430 644 -516 877
-22 56 -53 137 -69 178 -37 92 -128 458 -178 714 -36 188 -36 190 -18 220 15
25 20 59 24 167 l5 136 43 87 c32 64 63 107 118 164 l74 77 43 -60 c86 -117
260 -256 287 -229 11 11 -35 164 -89 297 -18 43 -31 86 -29 94 6 32 25 23 37
-17 7 -23 48 -89 92 -147 46 -59 78 -111 75 -119 -8 -22 3 -41 32 -53 15 -6
38 -27 51 -46 28 -42 46 -46 36 -7 l-7 27 25 -24 c29 -26 51 -20 41 11 -5 17
-3 20 11 15 9 -4 26 -7 37 -7 19 0 20 -4 14 -59 -4 -33 -4 -84 0 -113 6 -45
14 -60 57 -106 31 -33 75 -65 116 -85 61 -29 74 -32 166 -32 91 0 104 3 140
26 22 15 51 38 64 53 l24 26 49 -46 c31 -29 55 -44 64 -40 9 3 20 6 25 6 25 0
4 44 -41 82 -27 24 -50 47 -50 51 0 4 10 22 22 40 13 18 23 33 24 35 1 1 33
-9 73 -24 67 -25 72 -25 96 -10 16 11 25 26 25 42 0 21 3 25 18 18 59 -26 278
-94 303 -94 24 0 29 4 29 24 0 25 -43 58 -162 126 -32 17 -60 35 -62 38 -7 13
29 57 49 60 45 8 42 29 -21 173 -49 111 -86 244 -56 199 39 -57 171 -210 242
-280 42 -41 117 -102 166 -134 49 -33 102 -68 117 -78 63 -43 137 -55 137 -23
0 20 -102 146 -148 182 -59 48 -201 313 -167 313 3 0 15 -19 25 -42 30 -65
143 -238 191 -293 15 -16 54 -63 88 -103 34 -40 103 -104 154 -143 50 -39 97
-79 105 -90 22 -32 95 -76 195 -119 170 -73 175 -47 26 136 -134 166 -140 176
-236 363 -66 130 -76 156 -88 241 -16 101 -20 304 -7 296 4 -2 9 -24 11 -47 8
-147 114 -505 183 -617 62 -102 227 -302 249 -302 11 0 19 5 19 11 0 8 5 8 15
-1 11 -9 37 -11 85 -8 l70 5 1 -36 c4 -145 38 -210 138 -269 42 -25 54 -27
146 -26 122 2 161 12 216 56 49 38 99 137 99 194 l0 36 28 -17 c15 -10 38 -28
53 -41 29 -28 54 -31 63 -8 5 13 12 10 43 -15 21 -17 43 -31 49 -31 6 0 17 -7
24 -15 7 -8 30 -20 51 -26 50 -15 73 1 66 46 -4 27 -99 195 -132 235 -13 16
-67 111 -96 170 -17 34 -12 47 15 37 8 -3 40 -48 71 -99 78 -127 136 -184 240
-237 52 -27 132 -94 158 -135 43 -65 76 -188 86 -321 5 -80 9 179 10 782 l1
901 -37 23 c-21 12 -47 30 -58 39 -11 10 -32 20 -48 24 -15 4 -55 23 -90 44
-34 21 -81 46 -104 57 -24 11 -43 23 -43 28 0 4 -8 7 -17 8 -10 0 -80 33 -157
72 -115 60 -141 78 -158 108 -22 39 -20 69 6 102 20 26 94 25 159 -2 16 -6 32
-11 38 -11 5 0 38 -16 75 -35 36 -19 71 -35 77 -35 17 0 219 -105 307 -159 19
-11 38 -21 43 -21 4 0 7 171 7 380 l0 380 -3150 0 -3150 0 0 -3135z m4330
3006 c19 -1 22 -3 11 -10 -10 -6 0 -8 28 -4 39 5 76 -2 156 -30 58 -20 67 -37
56 -110 -1 -4 -118 -7 -260 -7 -179 1 -292 -4 -368 -14 -59 -8 -191 -25 -293
-36 -102 -12 -237 -30 -300 -40 -63 -11 -158 -26 -210 -34 -52 -8 -142 -24
-200 -35 -58 -12 -118 -23 -135 -25 -45 -7 -252 -62 -319 -86 -33 -12 -68 -19
-77 -17 -10 3 -19 1 -21 -4 -2 -5 -30 -16 -63 -24 -78 -20 -60 -12 -298 -125
-59 -28 -112 -48 -117 -45 -5 3 -14 -4 -20 -15 -8 -14 -17 -19 -28 -15 -9 3
-13 3 -9 -1 10 -10 -31 -36 -45 -28 -6 4 -8 3 -5 -3 8 -12 -34 -43 -57 -43 -8
0 -19 -6 -23 -12 -12 -19 -46 -35 -66 -32 -9 1 -15 -1 -12 -6 8 -13 -89 -87
-129 -98 -44 -13 -82 0 -89 29 -3 11 -11 19 -19 18 -10 0 -10 -2 0 -6 6 -2 12
-9 12 -14 0 -18 -19 1 -36 36 -11 23 -14 44 -9 67 8 36 39 81 49 71 3 -3 6 -1
6 4 0 13 138 106 157 106 7 0 10 3 8 7 -7 11 54 42 68 34 6 -4 9 -4 5 1 -8 8
33 45 50 45 5 0 15 7 23 16 9 11 22 14 41 10 16 -3 27 -2 24 2 -7 11 30 42 50
42 8 0 12 5 9 10 -3 6 -1 10 6 10 7 0 42 14 78 31 36 17 80 37 96 44 17 7 42
18 57 25 14 7 32 9 39 5 7 -5 10 -4 6 2 -7 11 42 38 51 28 3 -2 10 -1 16 4 6
5 47 18 91 31 44 12 108 31 143 42 34 10 72 16 85 13 13 -4 17 -3 10 2 -18 13
432 107 617 128 30 4 71 10 90 15 49 12 230 29 395 36 77 4 142 8 144 10 4 3
410 -1 531 -5z m-1203 -1187 c23 -33 76 -101 118 -150 42 -49 86 -102 98 -118
l20 -29 -54 30 c-113 62 -126 74 -172 163 -51 97 -91 191 -101 235 -5 24 -1
20 22 -20 15 -27 46 -77 69 -111z m1346 101 c29 -8 57 -19 63 -23 5 -4 21 -43
33 -87 33 -114 121 -293 191 -392 34 -47 60 -86 58 -87 -41 -26 -65 -38 -125
-63 -53 -22 -75 -28 -82 -19 -23 29 -72 140 -101 231 -58 181 -115 455 -95
455 4 0 30 -7 58 -15z m489 -146 c30 -10 40 -19 49 -48 21 -68 82 -226 96
-248 14 -20 12 -23 -30 -41 -85 -38 -82 -38 -105 20 -25 62 -36 105 -57 213
-19 98 -19 128 -2 121 6 -2 29 -10 49 -17z m197 -77 c46 -24 55 -34 67 -72 8
-25 18 -58 24 -74 7 -22 6 -32 -3 -38 -18 -12 -57 -21 -63 -15 -6 5 -94 216
-94 223 0 9 17 2 69 -24z m-2640 -156 c123 -45 130 -50 175 -119 l19 -29 -39
6 c-21 4 -84 12 -138 19 -116 15 -125 22 -155 130 -16 60 -17 66 -2 53 9 -8
72 -35 140 -60z m684 -232 c57 -20 143 -72 133 -81 -3 -3 -106 34 -128 47 -10
6 -27 10 -38 10 -12 0 -62 12 -111 27 -75 22 -93 32 -105 55 -8 15 -14 29 -14
32 0 2 44 -12 98 -31 53 -19 127 -46 165 -59z m2134 -148 c4 -8 23 -30 41 -50
17 -19 32 -38 32 -41 0 -4 -45 -4 -100 -1 -90 5 -103 8 -135 33 -19 15 -35 31
-35 34 0 5 136 34 177 38 7 1 16 -5 20 -13z m-283 -67 c37 -29 33 -39 -16 -39
-24 0 -79 -5 -123 -11 -61 -9 -85 -17 -101 -35 l-22 -22 -32 44 c-18 25 -30
47 -28 49 5 6 211 32 259 34 23 1 46 -7 63 -20z m-3487 -895 c18 -49 33 -102
33 -117 0 -16 4 -26 9 -23 4 3 14 -14 20 -37 7 -23 17 -50 22 -59 5 -10 9 -26
9 -35 0 -10 7 -27 15 -37 8 -11 15 -32 15 -48 0 -15 4 -28 9 -28 5 0 17 -21
26 -47 10 -27 26 -67 36 -90 11 -24 19 -47 19 -53 0 -5 10 -31 22 -57 11 -27
27 -61 34 -78 7 -16 40 -88 74 -158 41 -88 59 -136 55 -150 -5 -16 -4 -18 3
-8 7 9 22 -13 57 -83 26 -53 52 -96 57 -96 6 0 8 -7 4 -15 -3 -8 0 -14 6 -12
6 1 20 -16 32 -38 20 -35 51 -88 81 -137 11 -17 143 -208 172 -247 22 -30 61
-79 85 -105 10 -11 18 -26 18 -33 0 -7 5 -13 10 -13 6 0 10 -7 10 -15 0 -8 4
-14 9 -13 5 2 54 -43 109 -99 55 -57 98 -103 97 -103 -2 0 27 -30 64 -66 50
-50 60 -64 41 -58 -32 9 -122 83 -114 95 3 5 -2 9 -11 9 -10 0 -13 5 -9 12 5
8 2 9 -10 5 -11 -5 -15 -3 -10 5 5 8 1 9 -12 4 -10 -4 -15 -4 -11 0 4 4 -9 18
-28 31 -19 13 -35 30 -35 38 0 8 -5 15 -11 15 -19 0 -89 63 -82 74 3 6 2 8 -2
3 -13 -11 -125 103 -118 119 4 10 0 12 -11 8 -12 -5 -15 -2 -9 12 5 13 3 16
-10 11 -11 -4 -23 4 -39 26 -12 18 -33 40 -45 50 -13 10 -21 23 -18 28 4 5 -1
9 -9 9 -15 0 -42 38 -38 53 1 4 -2 7 -7 7 -26 0 -221 245 -221 278 0 5 -7 15
-16 22 -21 18 -46 81 -39 99 3 9 3 12 -1 8 -8 -8 -33 22 -34 41 0 13 -11 41
-51 127 -38 82 -69 158 -69 167 0 5 -11 34 -25 64 -14 30 -25 60 -25 67 0 7
-5 18 -11 24 -5 5 -11 24 -11 41 -1 17 -4 29 -8 27 -8 -5 -67 159 -76 212 -4
25 -11 40 -17 36 -6 -4 -7 4 -3 21 4 16 3 25 -2 22 -5 -3 -18 36 -27 87 -10
50 -21 97 -25 102 -15 20 -29 146 -19 172 15 40 32 22 66 -73z m-193 -2235 c5
-5 -35 -283 -58 -398 -16 -82 -5 -68 -208 -269 -64 -63 -124 -119 -133 -124
-18 -10 -98 13 -233 69 -105 42 -258 81 -382 97 -71 9 -95 16 -95 26 0 13 41
15 267 18 l267 2 54 108 c30 59 89 186 132 282 42 96 84 181 93 188 13 11 50
13 154 10 76 -3 140 -6 142 -9z m494 -9 c1 0 2 -5 2 -11 0 -19 -168 -264 -176
-256 -2 2 16 51 41 108 25 57 45 105 45 106 0 2 -19 2 -42 2 -25 -1 -33 -4
-20 -6 27 -5 24 -26 -4 -32 -37 -6 -61 -41 -29 -41 19 0 20 -16 1 -23 -7 -3
-35 -9 -62 -12 -75 -11 -87 -24 -17 -18 73 7 85 -5 58 -56 -15 -31 -16 -31
-95 -31 -49 0 -80 4 -80 10 0 6 8 25 17 43 9 18 18 34 18 37 7 39 19 50 51 50
19 0 34 5 34 11 0 6 -8 8 -19 4 -11 -3 -22 -1 -26 4 -12 20 15 50 48 54 26 4
24 4 -8 3 -38 -1 -41 -4 -71 -59 -28 -52 -118 -157 -135 -157 -4 0 23 60 59
134 65 131 68 135 102 139 25 4 285 1 308 -3z m225 -17 c-2 -9 14 -13 55 -14
31 -1 60 -1 65 0 4 0 7 -3 7 -7 0 -10 -65 -42 -85 -42 -21 0 -18 -19 10 -69
14 -24 24 -45 22 -47 -2 -2 -26 12 -53 31 -27 19 -52 35 -56 35 -4 0 -10 -11
-14 -25 -7 -29 -31 -45 -69 -45 -26 0 -27 2 -21 35 4 19 5 35 2 35 -2 0 -28
-11 -58 -25 -101 -47 -103 -27 -3 31 35 21 62 40 60 43 -3 3 -22 6 -43 7 -47
2 -45 1 -32 24 9 17 21 20 69 20 44 0 60 4 65 16 7 19 82 16 79 -3z m280 -15
c-5 -7 -24 -32 -41 -55 -18 -22 -30 -47 -27 -55 3 -8 -22 -40 -61 -78 -37 -36
-65 -60 -62 -55 2 6 12 27 23 48 16 32 17 40 5 47 -11 7 -8 16 16 47 65 86 95
113 126 113 23 0 28 -3 21 -12z m186 -22 c28 -29 31 -37 22 -55 -12 -22 -26
-27 -35 -12 -3 4 -44 2 -91 -5 -68 -11 -88 -12 -99 -2 -23 22 3 59 59 84 71
34 104 31 144 -10z m-4 -113 c-7 -16 -40 -106 -40 -109 0 -1 -10 -5 -22 -8
-21 -7 -22 -5 -17 26 l6 33 -37 -38 -37 -39 7 31 c9 40 -9 41 -30 1 -19 -38
-38 -40 -24 -4 13 37 6 40 -35 14 -42 -25 -44 -18 -17 50 22 53 33 57 165 59
80 1 87 -1 81 -16z m-685 -40 c0 -7 -61 -52 -82 -61 -13 -6 -9 18 8 43 11 17
26 25 45 25 16 0 29 -3 29 -7z m96 -7 c1 -1 -5 -16 -12 -33 -11 -27 -20 -33
-43 -33 -40 0 -44 10 -21 48 17 28 24 31 47 26 16 -4 28 -7 29 -8z m92 -27
c-12 -34 -25 -42 -61 -37 -25 3 -25 4 -12 36 12 27 19 32 49 32 35 0 35 0 24
-31z m87 14 c-4 -10 -10 -26 -12 -35 -4 -12 -15 -18 -34 -18 -32 0 -34 6 -19
44 7 20 16 26 41 26 26 0 30 -3 24 -17z m750 -13 c3 -5 18 -10 33 -10 26 -1
26 -1 8 -15 -11 -8 -36 -17 -55 -21 -20 -3 -47 -10 -61 -15 -17 -8 -26 -7 -28
0 -5 15 -75 14 -108 -1 -22 -10 -28 -10 -32 0 -2 6 -16 12 -30 12 -24 1 -21 4
22 26 42 22 56 25 105 19 31 -3 67 -2 81 4 33 13 57 13 65 1z m201 -15 c-5
-18 -2 -25 9 -25 22 0 19 -17 -4 -23 -21 -5 -56 -76 -44 -88 5 -4 37 -1 73 6
l65 13 -47 1 c-27 1 -48 4 -48 9 1 19 21 36 47 37 34 0 44 30 14 40 -31 9 -25
25 8 25 17 0 33 5 36 10 3 6 17 10 30 10 13 0 27 -4 30 -10 3 -5 17 -10 31
-10 25 0 28 -7 18 -34 -4 -10 -18 -16 -40 -16 -40 0 -46 -20 -6 -21 l27 -1
-32 -11 c-39 -15 -52 -27 -29 -27 27 0 46 -23 34 -43 -5 -9 -15 -17 -22 -17
-7 0 -19 -18 -26 -40 -15 -46 -29 -49 -71 -18 -30 22 -30 23 -8 28 41 10 34
30 -10 30 -22 0 -42 4 -45 9 -12 19 -56 -3 -82 -40 -31 -45 -47 -51 -38 -13 6
25 5 26 -20 20 -27 -7 -29 -4 -20 31 4 14 17 23 40 28 19 3 34 9 34 13 0 4 3
17 6 30 5 17 2 22 -13 22 -10 0 -25 -6 -32 -12 -8 -7 -12 -8 -10 -3 35 93 42
105 66 105 21 0 23 -3 17 -22 -7 -22 -6 -22 27 4 42 34 43 34 35 3z m594 -13
c0 -9 -67 -32 -94 -32 -9 0 -16 -4 -16 -10 0 -5 18 -10 39 -10 22 0 42 -3 44
-7 3 -5 -7 -39 -22 -78 l-27 -70 -149 -18 c-96 -11 -152 -14 -158 -8 -6 6 0
40 17 95 27 84 28 85 64 91 66 11 68 13 12 15 l-55 2 40 19 c33 15 64 19 173
19 72 0 132 -4 132 -8z m-1917 -93 c45 -17 87 -36 93 -43 6 -6 17 -40 24 -76
12 -62 11 -65 -12 -83 -12 -10 -74 -62 -136 -115 l-112 -96 -143 1 c-78 1
-145 2 -149 3 -4 0 -15 17 -23 38 -15 35 -15 40 7 87 26 57 72 120 97 131 9 4
50 11 91 14 l75 7 -101 1 c-104 2 -164 10 -164 21 0 3 46 21 103 39 56 18 136
48 177 66 41 19 79 35 83 35 4 1 45 -13 90 -30z m877 11 c0 -23 0 -23 -34 -10
-35 13 -33 30 4 30 23 0 30 -4 30 -20z m206 10 c32 0 31 -25 -1 -72 l-24 -36
-43 12 c-45 14 -65 37 -25 29 14 -3 29 2 36 11 12 14 8 16 -31 16 -41 0 -45
-2 -56 -33 -7 -18 -12 -36 -12 -40 0 -4 28 -8 63 -8 l62 -1 -90 -19 c-110 -22
-105 -21 -105 -8 0 21 53 134 69 147 11 10 33 12 75 8 32 -3 70 -6 82 -6z
m-656 -4 c0 -8 -67 -161 -89 -205 -25 -49 -24 -55 10 -42 18 6 37 38 78 130
l53 121 117 0 c65 0 120 -3 123 -6 13 -12 -54 -230 -89 -293 -92 -165 -145
-242 -196 -280 -51 -39 -51 -39 -87 -24 -66 29 -285 105 -348 121 -34 9 -61
21 -59 27 2 6 67 12 165 16 105 3 166 9 174 17 9 9 2 12 -34 12 -54 0 -78 18
-78 61 0 16 35 97 82 189 l82 160 48 0 c26 0 48 -2 48 -4z m435 -45 c10 -18
-14 -21 -47 -7 l-33 14 37 1 c20 1 39 -3 43 -8z m-25 -48 c-1 -9 -110 -85
-110 -77 0 18 68 84 88 84 12 0 22 -3 22 -7z m500 -7 c0 -22 -23 -56 -38 -56
-27 0 -32 9 -20 36 7 15 20 24 35 24 12 0 23 -2 23 -4z"/>
<path d="M2085 5600 c-3 -6 1 -7 9 -4 18 7 21 14 7 14 -6 0 -13 -4 -16 -10z"/>
<path d="M1604 3159 c-4 -7 -3 -9 4 -5 5 3 13 0 15 -6 4 -9 6 -10 6 -1 1 17
-16 25 -25 12z"/>
<path d="M1632 2927 c-8 -10 -6 -13 7 -13 11 0 17 6 14 13 -3 7 -6 13 -8 13
-1 0 -7 -6 -13 -13z"/>
<path d="M1761 2774 c0 -11 3 -14 6 -6 3 7 2 16 -1 19 -3 4 -6 -2 -5 -13z"/>
<path d="M1578 873 c6 -2 18 -2 25 0 6 3 1 5 -13 5 -14 0 -19 -2 -12 -5z"/>
<path d="M2430 1015 c-24 -14 -23 -15 28 -13 32 1 51 6 49 12 -6 17 -49 17
-77 1z"/>
<path d="M2360 900 c0 -5 5 -10 10 -10 6 0 10 5 10 10 0 6 -4 10 -10 10 -5 0
-10 -4 -10 -10z"/>
<path d="M2425 900 c-3 -5 -1 -10 4 -10 6 0 11 5 11 10 0 6 -2 10 -4 10 -3 0
-8 -4 -11 -10z"/>
<path d="M2480 900 c0 -5 5 -10 10 -10 6 0 10 5 10 10 0 6 -4 10 -10 10 -5 0
-10 -4 -10 -10z"/>
<path d="M3400 747 c0 -1 -4 -18 -10 -36 -5 -19 -6 -30 -2 -25 4 5 18 21 31
37 l24 27 -21 0 c-12 0 -22 -1 -22 -3z"/>
<path d="M3446 704 c-31 -26 -56 -48 -56 -50 0 -2 23 -4 51 -4 27 0 48 4 45 9
-3 5 1 26 10 46 8 20 13 39 11 41 -2 3 -30 -16 -61 -42z"/>
<path d="M3556 724 c-8 -22 -8 -24 9 -24 8 0 19 9 25 20 9 17 8 20 -9 20 -10
0 -22 -7 -25 -16z"/>
<path d="M3510 650 c-11 -8 -7 -9 15 -4 37 8 45 14 19 14 -10 0 -26 -5 -34
-10z"/>
<path d="M1452 470 c-18 -29 -16 -31 29 -28 30 2 46 9 57 26 14 22 14 22 -29
22 -33 0 -47 -5 -57 -20z"/>
<path d="M2304 3832 c-54 -39 -67 -57 -59 -81 12 -38 49 -36 104 5 52 39 64
67 39 92 -19 19 -42 14 -84 -16z"/>
<path d="M2576 3729 c-29 -34 -34 -70 -11 -89 24 -20 49 -7 71 40 36 76 -8
111 -60 49z"/>
<path d="M2912 3698 c-16 -16 -15 -80 1 -102 7 -10 22 -17 33 -14 15 2 20 13
22 51 4 65 -24 97 -56 65z"/>
<path d="M5059 3439 c-45 -55 -46 -80 -1 -87 44 -7 106 107 71 129 -22 14 -25
12 -70 -42z"/>
<path d="M5580 3470 c-13 -24 10 -62 48 -79 29 -14 28 -14 46 5 23 22 20 31
-16 65 -38 34 -63 37 -78 9z"/>
<path d="M5320 3455 c-8 -10 -11 -30 -6 -61 7 -57 12 -64 41 -64 25 0 42 30
29 52 -4 7 -10 28 -14 48 -6 38 -29 50 -50 25z"/>
<path d="M3171 2371 c-26 -26 -26 -33 -2 -62 19 -24 21 -24 298 -30 403 -10
498 -22 923 -117 167 -37 175 -37 199 -13 12 12 21 32 21 46 0 40 -30 61 -98
68 -34 4 -162 27 -285 52 -288 58 -380 67 -739 72 -290 4 -297 4 -317 -16z"/>
<path d="M3498 1979 c-25 -14 -22 -52 5 -76 69 -64 222 -93 487 -93 202 0 210
2 210 55 0 52 -9 55 -192 55 -184 0 -335 19 -407 51 -48 21 -77 23 -103 8z"/>
<path d="M6235 1260 c3 -5 8 -10 11 -10 2 0 4 5 4 10 0 6 -5 10 -11 10 -5 0
-7 -4 -4 -10z"/>
<path d="M6120 1189 c0 -5 5 -7 10 -4 6 3 10 8 10 11 0 2 -4 4 -10 4 -5 0 -10
-5 -10 -11z"/>
<path d="M5198 403 c7 -3 16 -2 19 1 4 3 -2 6 -13 5 -11 0 -14 -3 -6 -6z"/>
</g>
</svg>
